{"title":"Dont Raise The Bridge, Lower The River - Jerry Lewis - 1968","uid":8296622,"size":1257040142,"categoryP":"video","categoryS":"movies","magnet":"?xt=urn:btih:c5ad10e3bac55b022e10e3a0402073af3d315ca8&amp;dn=Dont+Raise+The+Bridge%2C+Lower+The+River+-+Jerry+Lewis+-+1968&amp;tr=udp%3A%2F%2Ftracker.openbittorrent.com%3A80&amp;tr=udp%3A%2F%2Fopen.demonii.com%3A1337&amp;tr=udp%3A%2F%2Ftracker.coppersurfer.tk%3A6969&amp;tr=udp%3A%2F%2Fexodus.desync.com%3A6969","seeders":4,"leechers":0,"uploader":"MrBruce1959","files":-1,"time":1364158091,"description":"Don't Raise the Bridge, Lower the River is a British-made comedy film produced by \n\nWalter Shenson starring Jerry Lewis and was released on 12 July 1968 by Columbia \n\nPictures. It was based on Max Wilk's novel of the same name with the original \n\nConnecticut locale moved to Swinging London and Portugal.\n\n &lt;a href=&quot;\nhttp://en.wikipedia.org/wiki/Don%27t_Raise_the_Bridge,_Lower_the_River&quot; rel=&quot;nofollow&quot; target=&quot;_NEW&quot;&gt;\nhttp://en.wikipedia.org/wiki/Don%27t_Raise_the_Bridge,_Lower_the_River&lt;/a&gt;\n\n\nThis video was recorded from USA television station WTIC-TV from Hartford \n\nConnecticut on their digital sub-channel 31.2 where a Standard Definition digital \n\ntelevision network service called &quot;Antenna TV&quot; is broadcast. You will notice the \n\nWTIC-TV FOXCT logo at the beginning of this video and an occasional FOXCT logo \n\ndisplayed during the film.\n\n\nThere are no commercials included in this video.\n\n\nThis movie was recorded in Standard Definition 4:3 format using a Magnavox \n\nZV457MG9 DVD recorder. The DVD was trans-coded to Audio Video Interleave (.AVI) \n\nformat using Nero 9's Nero Vision.\n\n\n\nFormat                                   : AVI\nFormat/Info                              : Audio Video Interleave\nFormat profile                           : OpenDML\nFile size                                : 1.17 GiB\nDuration                                 : 1h 38mn\nOverall bit rate                         : 1 707 Kbps\n\nVideo\nID                                       : 0\nFormat                                   : MPEG-4 Visual\nFormat profile                           : Advanced Simple@L5\nFormat settings, BVOP                    : 2\nFormat settings, QPel                    : No\nFormat settings, GMC                     : No warppoints\nFormat settings, Matrix                  : Default (H.263)\nMuxing mode                              : Packed bitstream\nCodec ID                                 : XVID\nCodec ID/Hint                            : XviD\nDuration                                 : 1h 38mn\nBit rate                                 : 291 Kbps\nWidth                                    : 320 pixels\nHeight                                   : 240 pixels\nDisplay aspect ratio                     : 4:3\nFrame rate                               : 29.970 fps\nOriginal frame rate                      : 25.000 fps\nColor space                              : YUV\nChroma subsampling                       : 4:2:0\nBit depth                                : 8 bits\nScan type                                : Progressive\nCompression mode                         : Lossy\nBits/(Pixel*Frame)                       : 0.127\nStream size                              : 205 MiB (17%)\nWriting library                          : XviD 63\n\nAudio\nID                                       : 1\nFormat                                   : PCM\nFormat settings, Endianness              : Little\nFormat settings, Sign                    : Signed\nCodec ID                                 : 1\nDuration                                 : 1h 38mn\nBit rate mode                            : Constant\nBit rate                                 : 1 411.2 Kbps\nChannel(s)                               : 2 channels\nSampling rate                            : 44.1 KHz\nBit depth                                : 16 bits\nStream size                              : 991 MiB (83%)\nAlignment                                : Aligned on interleaves\nInterleave, duration                     : 968 ms (29.00 video frames)\n\n\nPlease seed and enjoy! \n","torrent":{"xt":"urn:btih:c5ad10e3bac55b022e10e3a0402073af3d315ca8","amp;dn":"Dont+Raise+The+Bridge%2C+Lower+The+River+-+Jerry+Lewis+-+1968","amp;tr":["udp%3A%2F%2Ftracker.openbittorrent.com%3A80","udp%3A%2F%2Fopen.demonii.com%3A1337","udp%3A%2F%2Ftracker.coppersurfer.tk%3A6969","udp%3A%2F%2Fexodus.desync.com%3A6969"],"infoHash":"c5ad10e3bac55b022e10e3a0402073af3d315ca8","infoHashBuffer":{"type":"Buffer","data":[197,173,16,227,186,197,91,2,46,16,227,160,64,32,115,175,61,49,92,168]},"announce":[],"urlList":[]}}